<?xml version="1.0" encoding="UTF-8"?>
<svg id="Capa_1" data-name="Capa 1" xmlns="http://www.w3.org/2000/svg" version="1.1" viewBox="0 0 16 16">
  <defs>
    <style>
      .cls-1 {
        fill: #000;
        stroke-width: 0px;
      }
    </style>
  </defs>
  <path class="cls-1" d="M8,0h-3.3c-.9,0-1.4.2-1.9.4-.5.2-1,.5-1.4.9-.5.4-.8.9-1,1.5-.2.5-.3,1-.4,1.9v6.6c0,.9.2,1.4.4,1.9.2.5.5,1,.9,1.4s.9.7,1.4.9,1.1.3,1.9.4h6.6c.9,0,1.4-.2,1.9-.4s1-.5,1.4-.9.7-.9.9-1.4.3-1.1.4-1.9v-6.6c0-.9-.2-1.4-.4-1.9s-.5-1-.9-1.4-.9-.7-1.4-.9-1.1-.3-1.9-.4c-.8,0-1,0-3.2,0h0ZM7.3,1.4h3.9c.8,0,1.2.2,1.5.3.4.1.6.3.9.6s.5.5.6.9c.1.3.2.7.3,1.5v6.4c0,.8-.2,1.2-.3,1.5s-.3.7-.6.9c-.3.3-.5.5-.9.6-.3.1-.7.2-1.5.3h-6.4c-.8,0-1.2-.2-1.5-.3s-.7-.3-.9-.6c-.3-.3-.5-.6-.6-.9-.1-.3-.2-.7-.3-1.5v-6.4c0-.8.2-1.2.3-1.5.1-.4.3-.6.6-.9s.5-.5.9-.6c.3,0,.7-.2,1.5-.2s1-.1,2.5-.1h0ZM12.3,2.8c-.5,0-1,.4-1,1s.4,1,1,1h0c.5,0,1-.4,1-1s-.5-1-1-1M8,3.9c-2.3,0-4.1,1.8-4.2,4,0,2.3,1.8,4.1,4,4.2h0c2.3,0,4.1-1.9,4-4.2.1-2.2-1.7-4-3.9-4M8,5.3c1.5,0,2.7,1.2,2.7,2.7s-1.2,2.7-2.7,2.7h0c-1.5,0-2.7-1.2-2.7-2.7s1.2-2.7,2.7-2.7"/>
</svg>