<?xml version="1.0" encoding="UTF-8"?>
<svg id="Capa_2" data-name="Capa 2" xmlns="http://www.w3.org/2000/svg" version="1.1" viewBox="0 0 15.9 15.9">
  <defs>
    <style>
      .cls-1 {
        fill: #000;
        stroke-width: 0px;
      }
    </style>
  </defs>
  <path class="cls-1" d="M9.1,9.1c-1.4-.2-3.7.9-3.5,3.5s0,.4.2.6c0,0,.2.3.6.9,2.2,3,6.2.6,7-.2,1.3-1.4,1.9-3.3,2.1-4.2s-.1-.5-.4-.4c-.9,0-3.2.2-6-.1ZM12.7,13.3c-.6.7-3.1,2.1-5.3.6s-.3-.7,0-.9c1.7-1,4.4-1.7,4.4-1.7,0,0-3.1-.3-5.3,1.1s-.5,0-.4-.6c.5-1.9,2-2.1,3.5-1.9,2.2.3,4,0,4.7,0s.3.2.2.4c-.2.7-.9,1.8-1.9,2.9Z"/>
  <path class="cls-1" d="M8.3,3.1C5.9,1.3,3.3,1,1.7,1.1s-.6.5-.2.8c1,.7,2.3,2.1,2.6,5,0,.6.4,2,1.2,2.8s.6.2.9,0c1.2-.9,2.4-1,3.2-.9s.4,0,.5-.2c1-2-.2-4.4-1.7-5.5ZM9.1,7.9c-.2,0-.4,0-.6,0s-.3,0-.3-.4c-.5-2.9-2.1-3.8-3-4.2s2.2,2.7,2,4.6c0,.3-.2.4-.2.4-.2.1-.8.4-1,.5s-.3,0-.4,0c-.3-.3-.6-1.1-.7-1.9-.3-2.4-1.1-3.6-1.8-4.3s0-.8.4-.7c1,.2,2.4.6,4,1.8s2,2.3,1.8,4-.2.3-.3.3Z"/>
</svg>