<?xml version="1.0" encoding="UTF-8"?>
<svg id="Capa_1" data-name="Capa 1" xmlns="http://www.w3.org/2000/svg" version="1.1" viewBox="0 0 15.9 15.9">
  <defs>
    <style>
      .cls-1 {
        fill: #000;
        stroke-width: 0px;
      }
    </style>
  </defs>
  <path class="cls-1" d="M13.7,2.2L8.3.4c-.2,0-.4,0-.6,0l-5.6,1.8c-.2,0-.4.3-.4.5,0,.6-.2,1.8-.2,3.2,0,1.5.4,3.3,1.1,5,1.2,2.7,4.5,4.9,5.4,4.9s4.5-2.4,5.5-5.1c.6-1.6,1-3.4.9-4.9,0-1.3-.2-2.4-.3-3s-.2-.4-.4-.5ZM12.4,10.3c-1,2.5-3.4,4.1-4.5,4.1s-3.2-1.8-4.4-4.2-1-2.6-.9-4c0-1.9.2-3.2.2-3.2l5.3-1.7,5.1,1.9s0,.9.1,2.7c0,1.4-.3,2.9-.9,4.4Z"/>
  <path class="cls-1" d="M10.6,4.1l-2.8,3.1c-.1.2-.4.2-.5,0l-1-1.1c-.1-.1-.3-.2-.5,0l-1,.8c-.2.1-.2.4,0,.5l2.6,2.9c.1.2.4.2.5,0l4.2-4.8c.1-.1.1-.4,0-.5l-1-.9c-.1-.1-.4-.1-.5,0ZM5.5,7.4l.6-.5,1.2,1.3c.1.2.4.2.6,0l3.1-3.5.6.5-3.7,4c-.1.2-.4.2-.5,0l-1.8-1.9Z"/>
</svg>