<?xml version="1.0" encoding="UTF-8"?>
<svg id="Capa_1" data-name="Capa 1" xmlns="http://www.w3.org/2000/svg" version="1.1" viewBox="0 0 16 16">
  <defs>
    <style>
      .cls-1 {
        fill: #000;
        fill-rule: evenodd;
        stroke-width: 0px;
      }
    </style>
  </defs>
  <path class="cls-1" d="M1.9.5c.7-.7,1.8-.7,2.5,0q0,.1,0,.2l1.8,2.3c.3.4.4,1,.3,1.5l-.5,2.2c0,.2,0,.4,0,.6l2.5,2.5c.2,0,.4.2.6,0l2.2-.5c.5-.1,1.1,0,1.5.3l2.3,1.8c.8.6.9,1.9.2,2.6l-1,1c-.7.7-1.8,1.1-2.9.7-2.6-.9-5-2.4-7-4.4S1.1,7,.2,4.4C-.2,3.4.2,2.3.9,1.5l1-1Z"/>
</svg>